<svg width="64" height="157" viewBox="0 0 64 157" fill="none" xmlns="http://www.w3.org/2000/svg">
<mask id="path-1-inside-1" fill="white">
<path fill-rule="evenodd" clip-rule="evenodd" d="M3.90231 29.8732L1.38291 125.268L1.38304 125.268C1.38304 125.268 1.38304 125.269 1.38304 125.269C0.956646 141.414 13.6992 154.847 29.8442 155.274C45.9893 155.7 59.4231 142.958 59.8495 126.813C59.8503 126.783 59.851 126.753 59.8517 126.723L62.3708 31.3413L62.3707 31.3413C62.7971 15.1962 50.0546 1.76241 33.9095 1.33602C17.7644 0.909625 4.33061 13.6521 3.90422 29.7972C3.90355 29.8225 3.90291 29.8479 3.90231 29.8732Z"/>
</mask>
<path fill-rule="evenodd" clip-rule="evenodd" d="M3.90231 29.8732L1.38291 125.268L1.38304 125.268C1.38304 125.268 1.38304 125.269 1.38304 125.269C0.956646 141.414 13.6992 154.847 29.8442 155.274C45.9893 155.7 59.4231 142.958 59.8495 126.813C59.8503 126.783 59.851 126.753 59.8517 126.723L62.3708 31.3413L62.3707 31.3413C62.7971 15.1962 50.0546 1.76241 33.9095 1.33602C17.7644 0.909625 4.33061 13.6521 3.90422 29.7972C3.90355 29.8225 3.90291 29.8479 3.90231 29.8732Z" fill="#1A4D66"/>
<path d="M1.38291 125.268L-1.61605 125.189L-1.69525 128.188L1.3037 128.267L1.38291 125.268ZM3.90231 29.8732L6.90127 29.9524L6.90145 29.9448L3.90231 29.8732ZM1.38304 125.268L4.382 125.348L4.46121 122.349L1.46225 122.269L1.38304 125.268ZM59.8517 126.723L56.8528 126.644L56.8526 126.653L59.8517 126.723ZM62.3708 31.3413L65.3697 31.4205L65.4293 29.1644L63.2781 28.4818L62.3708 31.3413ZM62.3707 31.3413L59.3717 31.2621L59.3122 33.5183L61.4634 34.2008L62.3707 31.3413ZM4.38186 125.348L6.90126 29.9524L0.903352 29.794L-1.61605 125.189L4.38186 125.348ZM1.46225 122.269L1.46211 122.269L1.3037 128.267L1.30384 128.267L1.46225 122.269ZM-1.61591 125.189C-1.61591 125.189 -1.61591 125.189 -1.61592 125.189L4.38199 125.348C4.38199 125.348 4.382 125.348 4.382 125.348L-1.61591 125.189ZM-1.61592 125.189C-2.08605 142.991 11.9637 157.803 29.765 158.273L29.9234 152.275C15.4346 151.892 3.99934 139.837 4.38199 125.348L-1.61592 125.189ZM29.765 158.273C47.5664 158.743 62.3783 144.693 62.8485 126.892L56.8506 126.733C56.4679 141.222 44.4122 152.658 29.9234 152.275L29.765 158.273ZM62.8485 126.892C62.8493 126.859 62.8502 126.826 62.8509 126.794L56.8526 126.653C56.8519 126.68 56.8513 126.707 56.8506 126.733L62.8485 126.892ZM59.3718 31.2621L56.8528 126.644L62.8507 126.803L65.3697 31.4205L59.3718 31.2621ZM61.4634 34.2008L61.4635 34.2009L63.2781 28.4818L63.278 28.4818L61.4634 34.2008ZM65.3696 31.4205C65.8398 13.6192 51.7901 -1.1928 33.9887 -1.66294L33.8303 4.33497C48.3191 4.71762 59.7544 16.7733 59.3717 31.2621L65.3696 31.4205ZM33.9887 -1.66294C16.1874 -2.13307 1.3754 11.9167 0.905262 29.718L6.90317 29.8764C7.28582 15.3876 19.3415 3.95232 33.8303 4.33497L33.9887 -1.66294ZM0.905262 29.718C0.904526 29.7459 0.903825 29.7738 0.90316 29.8016L6.90145 29.9448C6.902 29.922 6.90257 29.8992 6.90317 29.8764L0.905262 29.718Z" fill="white" mask="url(#path-1-inside-1)"/>
</svg>
